STARTFONT 2.1
FONT -Misc-Aix-Medium-R-Normal--14-101-100-100-C-70-ISO10646-1
SIZE 10 100 100
FONTBOUNDINGBOX 24 16 -8 -3
COMMENT "Generated by fontforge, http://fontforge.sourceforge.net"
STARTPROPERTIES 22
FONTNAME_REGISTRY ""
FOUNDRY "Misc"
FAMILY_NAME "Aix"
WEIGHT_NAME "Medium"
SLANT "R"
SETWIDTH_NAME "Normal"
ADD_STYLE_NAME ""
PIXEL_SIZE 14
POINT_SIZE 101
RESOLUTION_X 100
RESOLUTION_Y 100
SPACING "C"
AVERAGE_WIDTH 70
CHARSET_REGISTRY "ISO10646"
CHARSET_ENCODING "1"
COPYRIGHT "GPLv2"
CAP_HEIGHT 8
X_HEIGHT 6
WEIGHT 10
QUAD_WIDTH 7
_GBDFED_INFO "Edited with gbdfed 1.6."
RESOLUTION 138
ENDPROPERTIES
CHARS 323
STARTCHAR char0
ENCODING 0
SWIDTH 360 0
DWIDTH 7 0
BBX 5 8 1 0
BITMAP
F8
88
88
88
88
88
88
F8
ENDCHAR
STARTCHAR spacehackarabic
ENCODING 32
SWIDTH 360 0
DWIDTH 7 0
BBX 1 1 6 -3
BITMAP
00
ENDCHAR
STARTCHAR exclam
ENCODING 33
SWIDTH 360 0
DWIDTH 7 0
BBX 1 8 3 0
BITMAP
80
80
80
80
80
00
80
80
ENDCHAR
STARTCHAR quotedbl
ENCODING 34
SWIDTH 360 0
DWIDTH 7 0
BBX 3 3 2 6
BITMAP
A0
A0
A0
ENDCHAR
STARTCHAR numbersign
ENCODING 35
SWIDTH 360 0
DWIDTH 7 0
BBX 5 8 1 0
BITMAP
50
50
F8
50
50
F8
50
50
ENDCHAR
STARTCHAR dollar
ENCODING 36
SWIDTH 360 0
DWIDTH 7 0
BBX 5 9 1 -1
BITMAP
20
F8
A0
A0
F8
28
28
F8
20
ENDCHAR
STARTCHAR percent
ENCODING 37
SWIDTH 360 0
DWIDTH 7 0
BBX 6 8 0 0
BITMAP
E0
A4
E8
10
20
5C
94
1C
ENDCHAR
STARTCHAR ampersand
ENCODING 38
SWIDTH 360 0
DWIDTH 7 0
BBX 5 8 1 0
BITMAP
E0
A0
A0
40
A8
90
90
E8
ENDCHAR
STARTCHAR quotesingle
ENCODING 39
SWIDTH 360 0
DWIDTH 7 0
BBX 1 3 3 6
BITMAP
80
80
80
ENDCHAR
STARTCHAR parenleft
ENCODING 40
SWIDTH 360 0
DWIDTH 7 0
BBX 3 10 3 -1
BITMAP
20
40
80
80
80
80
80
80
40
20
ENDCHAR
STARTCHAR parenright
ENCODING 41
SWIDTH 360 0
DWIDTH 7 0
BBX 3 10 1 -1
BITMAP
80
40
20
20
20
20
20
20
40
80
ENDCHAR
STARTCHAR asterisk
ENCODING 42
SWIDTH 360 0
DWIDTH 7 0
BBX 5 5 1 1
BITMAP
20
A8
70
A8
20
ENDCHAR
STARTCHAR plus
ENCODING 43
SWIDTH 360 0
DWIDTH 7 0
BBX 5 5 1 1
BITMAP
20
20
F8
20
20
ENDCHAR
STARTCHAR comma
ENCODING 44
SWIDTH 360 0
DWIDTH 7 0
BBX 2 4 2 -2
BITMAP
C0
C0
40
80
ENDCHAR
STARTCHAR hyphen
ENCODING 45
SWIDTH 360 0
DWIDTH 7 0
BBX 5 1 1 3
BITMAP
F8
ENDCHAR
STARTCHAR period
ENCODING 46
SWIDTH 360 0
DWIDTH 7 0
BBX 2 2 2 0
BITMAP
C0
C0
ENDCHAR
STARTCHAR slash
ENCODING 47
SWIDTH 360 0
DWIDTH 7 0
BBX 5 10 1 -1
BITMAP
08
08
10
10
20
20
40
40
80
80
ENDCHAR
STARTCHAR zero
ENCODING 48
SWIDTH 360 0
DWIDTH 7 0
BBX 5 8 1 0
BITMAP
F8
88
98
A8
C8
88
88
F8
ENDCHAR
STARTCHAR one
ENCODING 49
SWIDTH 360 0
DWIDTH 7 0
BBX 3 8 2 0
BITMAP
20
60
A0
20
20
20
20
20
ENDCHAR
STARTCHAR two
ENCODING 50
SWIDTH 360 0
DWIDTH 7 0
BBX 5 8 1 0
BITMAP
F8
08
08
F8
80
80
80
F8
ENDCHAR
STARTCHAR three
ENCODING 51
SWIDTH 360 0
DWIDTH 7 0
BBX 5 8 1 0
BITMAP
F8
08
08
F8
08
08
08
F8
ENDCHAR
STARTCHAR four
ENCODING 52
SWIDTH 360 0
DWIDTH 7 0
BBX 5 8 1 0
BITMAP
88
88
88
F8
08
08
08
08
ENDCHAR
STARTCHAR five
ENCODING 53
SWIDTH 360 0
DWIDTH 7 0
BBX 5 8 1 0
BITMAP
F8
80
80
F8
08
08
08
F8
ENDCHAR
STARTCHAR six
ENCODING 54
SWIDTH 360 0
DWIDTH 7 0
BBX 5 8 1 0
BITMAP
F8
80
80
F8
88
88
88
F8
ENDCHAR
STARTCHAR seven
ENCODING 55
SWIDTH 360 0
DWIDTH 7 0
BBX 5 8 1 0
BITMAP
F8
08
08
08
08
08
08
08
ENDCHAR
STARTCHAR eight
ENCODING 56
SWIDTH 360 0
DWIDTH 7 0
BBX 5 8 1 0
BITMAP
F8
88
88
70
88
88
88
F8
ENDCHAR
STARTCHAR nine
ENCODING 57
SWIDTH 360 0
DWIDTH 7 0
BBX 5 8 1 0
BITMAP
F8
88
88
F8
08
08
08
08
ENDCHAR
STARTCHAR colon
ENCODING 58
SWIDTH 360 0
DWIDTH 7 0
BBX 2 6 2 0
BITMAP
C0
C0
00
00
C0
C0
ENDCHAR
STARTCHAR semicolon
ENCODING 59
SWIDTH 360 0
DWIDTH 7 0
BBX 2 8 2 -2
BITMAP
C0
C0
00
00
C0
C0
40
80
ENDCHAR
STARTCHAR less
ENCODING 60
SWIDTH 360 0
DWIDTH 7 0
BBX 4 7 2 0
BITMAP
10
20
40
80
40
20
10
ENDCHAR
STARTCHAR equal
ENCODING 61
SWIDTH 360 0
DWIDTH 7 0
BBX 5 3 1 2
BITMAP
F8
00
F8
ENDCHAR
STARTCHAR greater
ENCODING 62
SWIDTH 360 0
DWIDTH 7 0
BBX 4 7 1 0
BITMAP
80
40
20
10
20
40
80
ENDCHAR
STARTCHAR question
ENCODING 63
SWIDTH 360 0
DWIDTH 7 0
BBX 5 8 1 0
BITMAP
F8
08
08
38
20
00
20
20
ENDCHAR
STARTCHAR at
ENCODING 64
SWIDTH 360 0
DWIDTH 7 0
BBX 5 9 1 -1
BITMAP
F8
88
B8
A8
A8
A8
B8
80
F8
ENDCHAR
STARTCHAR A
ENCODING 65
SWIDTH 360 0
DWIDTH 7 0
BBX 5 8 1 0
BITMAP
F8
88
88
F8
88
88
88
88
ENDCHAR
STARTCHAR B
ENCODING 66
SWIDTH 360 0
DWIDTH 7 0
BBX 5 8 1 0
BITMAP
F0
90
90
F8
88
88
88
F8
ENDCHAR
STARTCHAR C
ENCODING 67
SWIDTH 360 0
DWIDTH 7 0
BBX 5 8 1 0
BITMAP
F8
80
80
80
80
80
80
F8
ENDCHAR
STARTCHAR D
ENCODING 68
SWIDTH 360 0
DWIDTH 7 0
BBX 5 8 1 0
BITMAP
F0
88
88
88
88
88
88
F0
ENDCHAR
STARTCHAR E
ENCODING 69
SWIDTH 360 0
DWIDTH 7 0
BBX 5 8 1 0
BITMAP
F8
80
80
F8
80
80
80
F8
ENDCHAR
STARTCHAR F
ENCODING 70
SWIDTH 360 0
DWIDTH 7 0
BBX 5 8 1 0
BITMAP
F8
80
80
F8
80
80
80
80
ENDCHAR
STARTCHAR G
ENCODING 71
SWIDTH 360 0
DWIDTH 7 0
BBX 5 8 1 0
BITMAP
F8
80
80
B8
88
88
88
F8
ENDCHAR
STARTCHAR H
ENCODING 72
SWIDTH 360 0
DWIDTH 7 0
BBX 5 8 1 0
BITMAP
88
88
88
F8
88
88
88
88
ENDCHAR
STARTCHAR I
ENCODING 73
SWIDTH 360 0
DWIDTH 7 0
BBX 5 8 1 0
BITMAP
F8
20
20
20
20
20
20
F8
ENDCHAR
STARTCHAR J
ENCODING 74
SWIDTH 360 0
DWIDTH 7 0
BBX 5 8 1 0
BITMAP
08
08
08
08
08
08
08
F8
ENDCHAR
STARTCHAR K
ENCODING 75
SWIDTH 360 0
DWIDTH 7 0
BBX 5 8 1 0
BITMAP
88
90
A0
C0
C0
A0
90
88
ENDCHAR
STARTCHAR L
ENCODING 76
SWIDTH 360 0
DWIDTH 7 0
BBX 5 8 1 0
BITMAP
80
80
80
80
80
80
80
F8
ENDCHAR
STARTCHAR M
ENCODING 77
SWIDTH 360 0
DWIDTH 7 0
BBX 5 8 1 0
BITMAP
F8
A8
A8
A8
A8
A8
A8
A8
ENDCHAR
STARTCHAR N
ENCODING 78
SWIDTH 360 0
DWIDTH 7 0
BBX 5 8 1 0
BITMAP
F8
88
88
88
88
88
88
88
ENDCHAR
STARTCHAR O
ENCODING 79
SWIDTH 360 0
DWIDTH 7 0
BBX 5 8 1 0
BITMAP
F8
88
88
88
88
88
88
F8
ENDCHAR
STARTCHAR P
ENCODING 80
SWIDTH 360 0
DWIDTH 7 0
BBX 5 8 1 0
BITMAP
F8
88
88
F8
80
80
80
80
ENDCHAR
STARTCHAR Q
ENCODING 81
SWIDTH 360 0
DWIDTH 7 0
BBX 6 9 1 -1
BITMAP
F8
88
88
88
88
88
88
F8
0C
ENDCHAR
STARTCHAR R
ENCODING 82
SWIDTH 360 0
DWIDTH 7 0
BBX 5 8 1 0
BITMAP
F8
88
88
F8
A0
90
88
88
ENDCHAR
STARTCHAR S
ENCODING 83
SWIDTH 360 0
DWIDTH 7 0
BBX 5 8 1 0
BITMAP
F8
80
80
F8
08
08
08
F8
ENDCHAR
STARTCHAR T
ENCODING 84
SWIDTH 360 0
DWIDTH 7 0
BBX 5 8 1 0
BITMAP
F8
20
20
20
20
20
20
20
ENDCHAR
STARTCHAR U
ENCODING 85
SWIDTH 360 0
DWIDTH 7 0
BBX 5 8 1 0
BITMAP
88
88
88
88
88
88
88
F8
ENDCHAR
STARTCHAR V
ENCODING 86
SWIDTH 360 0
DWIDTH 7 0
BBX 5 8 1 0
BITMAP
88
88
88
88
88
88
50
20
ENDCHAR
STARTCHAR W
ENCODING 87
SWIDTH 360 0
DWIDTH 7 0
BBX 5 8 1 0
BITMAP
A8
A8
A8
A8
A8
A8
A8
F8
ENDCHAR
STARTCHAR X
ENCODING 88
SWIDTH 360 0
DWIDTH 7 0
BBX 5 8 1 0
BITMAP
88
88
50
20
50
88
88
88
ENDCHAR
STARTCHAR Y
ENCODING 89
SWIDTH 360 0
DWIDTH 7 0
BBX 5 8 1 0
BITMAP
88
88
88
F8
20
20
20
20
ENDCHAR
STARTCHAR Z
ENCODING 90
SWIDTH 360 0
DWIDTH 7 0
BBX 5 8 1 0
BITMAP
F8
08
10
20
40
80
80
F8
ENDCHAR
STARTCHAR bracketleft
ENCODING 91
SWIDTH 360 0
DWIDTH 7 0
BBX 3 10 3 -1
BITMAP
E0
80
80
80
80
80
80
80
80
E0
ENDCHAR
STARTCHAR backslash
ENCODING 92
SWIDTH 360 0
DWIDTH 7 0
BBX 5 10 1 -1
BITMAP
80
80
40
40
20
20
10
10
08
08
ENDCHAR
STARTCHAR bracketright
ENCODING 93
SWIDTH 360 0
DWIDTH 7 0
BBX 3 10 1 -1
BITMAP
E0
20
20
20
20
20
20
20
20
E0
ENDCHAR
STARTCHAR asciicircum
ENCODING 94
SWIDTH 360 0
DWIDTH 7 0
BBX 5 3 1 6
BITMAP
20
50
88
ENDCHAR
STARTCHAR underscore
ENCODING 95
SWIDTH 360 0
DWIDTH 7 0
BBX 7 1 0 -1
BITMAP
FE
ENDCHAR
STARTCHAR grave
ENCODING 96
SWIDTH 360 0
DWIDTH 7 0
BBX 3 3 2 6
BITMAP
80
40
20
ENDCHAR
STARTCHAR a
ENCODING 97
SWIDTH 360 0
DWIDTH 7 0
BBX 5 6 1 0
BITMAP
F8
08
F8
88
88
F8
ENDCHAR
STARTCHAR b
ENCODING 98
SWIDTH 360 0
DWIDTH 7 0
BBX 5 8 1 0
BITMAP
80
80
F8
88
88
88
88
F8
ENDCHAR
STARTCHAR c
ENCODING 99
SWIDTH 360 0
DWIDTH 7 0
BBX 5 6 1 0
BITMAP
F8
80
80
80
80
F8
ENDCHAR
STARTCHAR d
ENCODING 100
SWIDTH 360 0
DWIDTH 7 0
BBX 5 8 1 0
BITMAP
08
08
F8
88
88
88
88
F8
ENDCHAR
STARTCHAR e
ENCODING 101
SWIDTH 360 0
DWIDTH 7 0
BBX 5 6 1 0
BITMAP
F8
88
F8
80
80
F8
ENDCHAR
STARTCHAR f
ENCODING 102
SWIDTH 360 0
DWIDTH 7 0
BBX 5 8 1 0
BITMAP
78
40
F0
40
40
40
40
40
ENDCHAR
STARTCHAR g
ENCODING 103
SWIDTH 360 0
DWIDTH 7 0
BBX 5 8 1 -2
BITMAP
F8
88
88
88
88
F8
08
F8
ENDCHAR
STARTCHAR h
ENCODING 104
SWIDTH 360 0
DWIDTH 7 0
BBX 5 8 1 0
BITMAP
80
80
F8
88
88
88
88
88
ENDCHAR
STARTCHAR i
ENCODING 105
SWIDTH 360 0
DWIDTH 7 0
BBX 5 9 1 0
BITMAP
20
20
00
E0
20
20
20
20
38
ENDCHAR
STARTCHAR j
ENCODING 106
SWIDTH 360 0
DWIDTH 7 0
BBX 4 11 1 -2
BITMAP
10
10
00
10
10
10
10
10
10
10
F0
ENDCHAR
STARTCHAR k
ENCODING 107
SWIDTH 360 0
DWIDTH 7 0
BBX 5 8 1 0
BITMAP
80
80
90
A0
C0
A0
90
88
ENDCHAR
STARTCHAR l
ENCODING 108
SWIDTH 360 0
DWIDTH 7 0
BBX 5 8 1 0
BITMAP
E0
20
20
20
20
20
20
38
ENDCHAR
STARTCHAR m
ENCODING 109
SWIDTH 360 0
DWIDTH 7 0
BBX 5 6 1 0
BITMAP
F8
A8
A8
A8
A8
A8
ENDCHAR
STARTCHAR n
ENCODING 110
SWIDTH 360 0
DWIDTH 7 0
BBX 5 6 1 0
BITMAP
F8
88
88
88
88
88
ENDCHAR
STARTCHAR o
ENCODING 111
SWIDTH 360 0
DWIDTH 7 0
BBX 5 6 1 0
BITMAP
F8
88
88
88
88
F8
ENDCHAR
STARTCHAR p
ENCODING 112
SWIDTH 360 0
DWIDTH 7 0
BBX 5 8 1 -2
BITMAP
F8
88
88
88
88
F8
80
80
ENDCHAR
STARTCHAR q
ENCODING 113
SWIDTH 360 0
DWIDTH 7 0
BBX 5 8 1 -2
BITMAP
F8
88
88
88
88
F8
08
08
ENDCHAR
STARTCHAR r
ENCODING 114
SWIDTH 360 0
DWIDTH 7 0
BBX 5 6 1 0
BITMAP
F8
80
80
80
80
80
ENDCHAR
STARTCHAR s
ENCODING 115
SWIDTH 360 0
DWIDTH 7 0
BBX 5 6 1 0
BITMAP
F8
80
F8
08
08
F8
ENDCHAR
STARTCHAR t
ENCODING 116
SWIDTH 360 0
DWIDTH 7 0
BBX 5 8 1 0
BITMAP
40
40
F0
40
40
40
40
78
ENDCHAR
STARTCHAR u
ENCODING 117
SWIDTH 360 0
DWIDTH 7 0
BBX 5 6 1 0
BITMAP
88
88
88
88
88
F8
ENDCHAR
STARTCHAR v
ENCODING 118
SWIDTH 360 0
DWIDTH 7 0
BBX 5 6 1 0
BITMAP
88
88
88
88
50
20
ENDCHAR
STARTCHAR w
ENCODING 119
SWIDTH 360 0
DWIDTH 7 0
BBX 5 6 1 0
BITMAP
A8
A8
A8
A8
A8
F8
ENDCHAR
STARTCHAR x
ENCODING 120
SWIDTH 360 0
DWIDTH 7 0
BBX 5 6 1 0
BITMAP
88
50
20
20
50
88
ENDCHAR
STARTCHAR y
ENCODING 121
SWIDTH 360 0
DWIDTH 7 0
BBX 5 8 1 -2
BITMAP
88
88
88
88
88
F8
08
F8
ENDCHAR
STARTCHAR z
ENCODING 122
SWIDTH 360 0
DWIDTH 7 0
BBX 5 6 1 0
BITMAP
F8
10
20
40
80
F8
ENDCHAR
STARTCHAR braceleft
ENCODING 123
SWIDTH 360 0
DWIDTH 7 0
BBX 4 10 2 -1
BITMAP
70
40
40
40
C0
40
40
40
40
70
ENDCHAR
STARTCHAR bar
ENCODING 124
SWIDTH 360 0
DWIDTH 7 0
BBX 1 16 3 -3
BITMAP
80
80
80
80
80
80
80
80
80
80
80
80
80
80
80
80
ENDCHAR
STARTCHAR braceright
ENCODING 125
SWIDTH 360 0
DWIDTH 7 0
BBX 4 10 1 -1
BITMAP
E0
20
20
20
30
20
20
20
20
E0
ENDCHAR
STARTCHAR asciitilde
ENCODING 126
SWIDTH 360 0
DWIDTH 7 0
BBX 5 2 1 3
BITMAP
E8
B8
ENDCHAR
STARTCHAR nonbreakingspace
ENCODING 160
SWIDTH 360 0
DWIDTH 7 0
BBX 1 1 6 -3
BITMAP
00
ENDCHAR
STARTCHAR exclamdown
ENCODING 161
SWIDTH 360 0
DWIDTH 7 0
BBX 1 8 3 0
BITMAP
80
80
00
80
80
80
80
80
ENDCHAR
STARTCHAR cent
ENCODING 162
SWIDTH 360 0
DWIDTH 7 0
BBX 5 8 1 -1
BITMAP
20
F8
A0
A0
A0
A0
F8
20
ENDCHAR
STARTCHAR sterling
ENCODING 163
SWIDTH 360 0
DWIDTH 7 0
BBX 5 8 1 0
BITMAP
78
40
40
F0
40
40
40
F8
ENDCHAR
STARTCHAR currency
ENCODING 164
SWIDTH 360 0
DWIDTH 7 0
BBX 5 6 1 0
BITMAP
88
70
50
50
70
88
ENDCHAR
STARTCHAR yen
ENCODING 165
SWIDTH 360 0
DWIDTH 7 0
BBX 5 8 1 0
BITMAP
88
50
20
F8
20
F8
20
20
ENDCHAR
STARTCHAR brokenbar
ENCODING 166
SWIDTH 360 0
DWIDTH 7 0
BBX 1 8 3 0
BITMAP
80
80
80
00
00
80
80
80
ENDCHAR
STARTCHAR section
ENCODING 167
SWIDTH 360 0
DWIDTH 7 0
BBX 5 8 1 0
BITMAP
F8
80
F8
88
88
F8
08
F8
ENDCHAR
STARTCHAR dieresis
ENCODING 168
SWIDTH 360 0
DWIDTH 7 0
BBX 3 2 2 9
BITMAP
A0
A0
ENDCHAR
STARTCHAR copyright
ENCODING 169
SWIDTH 360 0
DWIDTH 7 0
BBX 6 8 0 0
BITMAP
FC
84
B4
A4
A4
B4
84
FC
ENDCHAR
STARTCHAR ordfeminine
ENCODING 170
SWIDTH 360 0
DWIDTH 7 0
BBX 5 7 1 2
BITMAP
F8
08
F8
88
F8
00
F8
ENDCHAR
STARTCHAR guillemotleft
ENCODING 171
SWIDTH 360 0
DWIDTH 7 0
BBX 6 7 0 0
BITMAP
14
28
50
A0
50
28
14
ENDCHAR
STARTCHAR logicalnot
ENCODING 172
SWIDTH 360 0
DWIDTH 7 0
BBX 5 3 1 2
BITMAP
F8
08
08
ENDCHAR
STARTCHAR softhyphen
ENCODING 173
SWIDTH 360 0
DWIDTH 7 0
BBX 3 1 2 3
BITMAP
E0
ENDCHAR
STARTCHAR registered
ENCODING 174
SWIDTH 360 0
DWIDTH 7 0
BBX 6 8 0 0
BITMAP
FC
84
B4
A4
A4
A4
84
FC
ENDCHAR
STARTCHAR macron
ENCODING 175
SWIDTH 360 0
DWIDTH 7 0
BBX 3 1 2 9
BITMAP
E0
ENDCHAR
STARTCHAR degree
ENCODING 176
SWIDTH 360 0
DWIDTH 7 0
BBX 3 3 1 6
BITMAP
E0
A0
E0
ENDCHAR
STARTCHAR plusminus
ENCODING 177
SWIDTH 360 0
DWIDTH 7 0
BBX 5 7 1 0
BITMAP
20
20
F8
20
20
00
F8
ENDCHAR
STARTCHAR twosuperior
ENCODING 178
SWIDTH 360 0
DWIDTH 7 0
BBX 4 5 1 4
BITMAP
F0
10
F0
80
F0
ENDCHAR
STARTCHAR threesuperior
ENCODING 179
SWIDTH 360 0
DWIDTH 7 0
BBX 4 5 1 4
BITMAP
F0
10
F0
10
F0
ENDCHAR
STARTCHAR acute
ENCODING 180
SWIDTH 360 0
DWIDTH 7 0
BBX 2 2 3 9
BITMAP
40
80
ENDCHAR
STARTCHAR mu1
ENCODING 181
SWIDTH 360 0
DWIDTH 7 0
BBX 5 8 1 -2
BITMAP
88
88
88
88
88
F8
80
80
ENDCHAR
STARTCHAR paragraph
ENCODING 182
SWIDTH 360 0
DWIDTH 7 0
BBX 5 8 1 0
BITMAP
F8
A8
A8
E8
28
28
28
28
ENDCHAR
STARTCHAR middot
ENCODING 183
SWIDTH 360 0
DWIDTH 7 0
BBX 2 2 2 4
BITMAP
C0
C0
ENDCHAR
STARTCHAR cedilla
ENCODING 184
SWIDTH 360 0
DWIDTH 7 0
BBX 2 3 2 -2
BITMAP
40
40
80
ENDCHAR
STARTCHAR onesuperior
ENCODING 185
SWIDTH 360 0
DWIDTH 7 0
BBX 2 5 1 4
BITMAP
40
C0
40
40
40
ENDCHAR
STARTCHAR ordmasculine
ENCODING 186
SWIDTH 360 0
DWIDTH 7 0
BBX 5 7 1 2
BITMAP
F8
88
88
88
F8
00
F8
ENDCHAR
STARTCHAR guillemotright
ENCODING 187
SWIDTH 360 0
DWIDTH 7 0
BBX 6 7 0 0
BITMAP
A0
50
28
14
28
50
A0
ENDCHAR
STARTCHAR onequarter
ENCODING 188
SWIDTH 360 0
DWIDTH 7 0
BBX 6 11 0 0
BITMAP
40
C0
44
48
50
20
54
94
1C
04
04
ENDCHAR
STARTCHAR onehalf
ENCODING 189
SWIDTH 360 0
DWIDTH 7 0
BBX 6 11 0 0
BITMAP
40
C0
44
48
50
20
5C
84
1C
10
1C
ENDCHAR
STARTCHAR threequarters
ENCODING 190
SWIDTH 360 0
DWIDTH 7 0
BBX 6 11 0 0
BITMAP
E0
20
E4
28
F0
20
54
94
1C
04
04
ENDCHAR
STARTCHAR questiondown
ENCODING 191
SWIDTH 360 0
DWIDTH 7 0
BBX 5 8 1 0
BITMAP
20
20
00
20
E0
80
80
F8
ENDCHAR
STARTCHAR Agrave
ENCODING 192
SWIDTH 360 0
DWIDTH 7 0
BBX 5 11 1 0
BITMAP
40
20
00
F8
88
88
F8
88
88
88
88
ENDCHAR
STARTCHAR Aacute
ENCODING 193
SWIDTH 360 0
DWIDTH 7 0
BBX 5 11 1 0
BITMAP
10
20
00
F8
88
88
F8
88
88
88
88
ENDCHAR
STARTCHAR Acircumflex
ENCODING 194
SWIDTH 360 0
DWIDTH 7 0
BBX 5 11 1 0
BITMAP
20
50
00
F8
88
88
F8
88
88
88
88
ENDCHAR
STARTCHAR Atilde
ENCODING 195
SWIDTH 360 0
DWIDTH 7 0
BBX 5 11 1 0
BITMAP
28
50
00
F8
88
88
F8
88
88
88
88
ENDCHAR
STARTCHAR Adieresis
ENCODING 196
SWIDTH 360 0
DWIDTH 7 0
BBX 5 11 1 0
BITMAP
50
50
00
F8
88
88
F8
88
88
88
88
ENDCHAR
STARTCHAR Aring
ENCODING 197
SWIDTH 360 0
DWIDTH 7 0
BBX 5 11 1 0
BITMAP
20
50
20
F8
88
88
F8
88
88
88
88
ENDCHAR
STARTCHAR AE
ENCODING 198
SWIDTH 360 0
DWIDTH 7 0
BBX 5 8 1 0
BITMAP
F8
A0
A0
F8
A0
A0
A0
B8
ENDCHAR
STARTCHAR Ccedilla
ENCODING 199
SWIDTH 360 0
DWIDTH 7 0
BBX 5 10 1 -2
BITMAP
F8
80
80
80
80
80
80
F8
20
40
ENDCHAR
STARTCHAR Egrave
ENCODING 200
SWIDTH 360 0
DWIDTH 7 0
BBX 5 11 1 0
BITMAP
40
20
00
F8
80
80
F8
80
80
80
F8
ENDCHAR
STARTCHAR Eacute
ENCODING 201
SWIDTH 360 0
DWIDTH 7 0
BBX 5 11 1 0
BITMAP
10
20
00
F8
80
80
F8
80
80
80
F8
ENDCHAR
STARTCHAR Ecircumflex
ENCODING 202
SWIDTH 360 0
DWIDTH 7 0
BBX 5 11 1 0
BITMAP
20
50
00
F8
80
80
F8
80
80
80
F8
ENDCHAR
STARTCHAR Edieresis
ENCODING 203
SWIDTH 360 0
DWIDTH 7 0
BBX 5 11 1 0
BITMAP
50
50
00
F8
80
80
F8
80
80
80
F8
ENDCHAR
STARTCHAR Igrave
ENCODING 204
SWIDTH 360 0
DWIDTH 7 0
BBX 5 11 1 0
BITMAP
40
20
00
F8
20
20
20
20
20
20
F8
ENDCHAR
STARTCHAR Iacute
ENCODING 205
SWIDTH 360 0
DWIDTH 7 0
BBX 5 11 1 0
BITMAP
10
20
00
F8
20
20
20
20
20
20
F8
ENDCHAR
STARTCHAR Icircumflex
ENCODING 206
SWIDTH 360 0
DWIDTH 7 0
BBX 5 11 1 0
BITMAP
20
50
00
F8
20
20
20
20
20
20
F8
ENDCHAR
STARTCHAR Idieresis
ENCODING 207
SWIDTH 360 0
DWIDTH 7 0
BBX 5 11 1 0
BITMAP
50
50
00
F8
20
20
20
20
20
20
F8
ENDCHAR
STARTCHAR Eth
ENCODING 208
SWIDTH 360 0
DWIDTH 7 0
BBX 6 8 0 0
BITMAP
78
44
44
F4
44
44
44
78
ENDCHAR
STARTCHAR Ntilde
ENCODING 209
SWIDTH 360 0
DWIDTH 7 0
BBX 5 11 1 0
BITMAP
28
50
00
F8
88
88
88
88
88
88
88
ENDCHAR
STARTCHAR Ograve
ENCODING 210
SWIDTH 360 0
DWIDTH 7 0
BBX 5 11 1 0
BITMAP
40
20
00
F8
88
88
88
88
88
88
F8
ENDCHAR
STARTCHAR Oacute
ENCODING 211
SWIDTH 360 0
DWIDTH 7 0
BBX 5 11 1 0
BITMAP
10
20
00
F8
88
88
88
88
88
88
F8
ENDCHAR
STARTCHAR Ocircumflex
ENCODING 212
SWIDTH 360 0
DWIDTH 7 0
BBX 5 11 1 0
BITMAP
20
50
00
F8
88
88
88
88
88
88
F8
ENDCHAR
STARTCHAR Otilde
ENCODING 213
SWIDTH 360 0
DWIDTH 7 0
BBX 5 11 1 0
BITMAP
28
50
00
F8
88
88
88
88
88
88
F8
ENDCHAR
STARTCHAR Odieresis
ENCODING 214
SWIDTH 360 0
DWIDTH 7 0
BBX 5 11 1 0
BITMAP
50
50
00
F8
88
88
88
88
88
88
F8
ENDCHAR
STARTCHAR multiply
ENCODING 215
SWIDTH 360 0
DWIDTH 7 0
BBX 5 5 1 1
BITMAP
88
50
20
50
88
ENDCHAR
STARTCHAR Oslash
ENCODING 216
SWIDTH 360 0
DWIDTH 7 0
BBX 7 8 0 0
BITMAP
7C
46
44
4C
54
64
C4
7C
ENDCHAR
STARTCHAR Ugrave
ENCODING 217
SWIDTH 360 0
DWIDTH 7 0
BBX 5 11 1 0
BITMAP
40
20
00
88
88
88
88
88
88
88
F8
ENDCHAR
STARTCHAR Uacute
ENCODING 218
SWIDTH 360 0
DWIDTH 7 0
BBX 5 11 1 0
BITMAP
10
20
00
88
88
88
88
88
88
88
F8
ENDCHAR
STARTCHAR Ucircumflex
ENCODING 219
SWIDTH 360 0
DWIDTH 7 0
BBX 5 11 1 0
BITMAP
20
50
00
88
88
88
88
88
88
88
F8
ENDCHAR
STARTCHAR Udieresis
ENCODING 220
SWIDTH 360 0
DWIDTH 7 0
BBX 5 11 1 0
BITMAP
50
50
00
88
88
88
88
88
88
88
F8
ENDCHAR
STARTCHAR Yacute
ENCODING 221
SWIDTH 360 0
DWIDTH 7 0
BBX 5 11 1 0
BITMAP
10
20
00
88
88
88
F8
20
20
20
20
ENDCHAR
STARTCHAR Thorn
ENCODING 222
SWIDTH 360 0
DWIDTH 7 0
BBX 5 8 1 0
BITMAP
80
F8
88
88
88
88
F8
80
ENDCHAR
STARTCHAR germandbls
ENCODING 223
SWIDTH 360 0
DWIDTH 7 0
BBX 5 8 1 0
BITMAP
F0
90
F8
88
88
88
C8
B8
ENDCHAR
STARTCHAR agrave
ENCODING 224
SWIDTH 360 0
DWIDTH 7 0
BBX 5 9 1 0
BITMAP
40
20
00
F8
08
F8
88
88
F8
ENDCHAR
STARTCHAR aacute
ENCODING 225
SWIDTH 360 0
DWIDTH 7 0
BBX 5 9 1 0
BITMAP
10
20
00
F8
08
F8
88
88
F8
ENDCHAR
STARTCHAR acircumflex
ENCODING 226
SWIDTH 360 0
DWIDTH 7 0
BBX 5 9 1 0
BITMAP
20
50
00
F8
08
F8
88
88
F8
ENDCHAR
STARTCHAR atilde
ENCODING 227
SWIDTH 360 0
DWIDTH 7 0
BBX 5 9 1 0
BITMAP
28
50
00
F8
08
F8
88
88
F8
ENDCHAR
STARTCHAR adieresis
ENCODING 228
SWIDTH 360 0
DWIDTH 7 0
BBX 5 9 1 0
BITMAP
50
50
00
F8
08
F8
88
88
F8
ENDCHAR
STARTCHAR aring
ENCODING 229
SWIDTH 360 0
DWIDTH 7 0
BBX 5 10 1 0
BITMAP
20
50
20
00
F8
08
F8
88
88
F8
ENDCHAR
STARTCHAR ae
ENCODING 230
SWIDTH 360 0
DWIDTH 7 0
BBX 5 6 1 0
BITMAP
F8
28
F8
A0
A0
F8
ENDCHAR
STARTCHAR ccedilla
ENCODING 231
SWIDTH 360 0
DWIDTH 7 0
BBX 5 8 1 -2
BITMAP
F8
80
80
80
80
F8
20
40
ENDCHAR
STARTCHAR egrave
ENCODING 232
SWIDTH 360 0
DWIDTH 7 0
BBX 5 9 1 0
BITMAP
40
20
00
F8
88
F8
80
80
F8
ENDCHAR
STARTCHAR eacute
ENCODING 233
SWIDTH 360 0
DWIDTH 7 0
BBX 5 9 1 0
BITMAP
10
20
00
F8
88
F8
80
80
F8
ENDCHAR
STARTCHAR ecircumflex
ENCODING 234
SWIDTH 360 0
DWIDTH 7 0
BBX 5 9 1 0
BITMAP
20
50
00
F8
88
F8
80
80
F8
ENDCHAR
STARTCHAR edieresis
ENCODING 235
SWIDTH 360 0
DWIDTH 7 0
BBX 5 9 1 0
BITMAP
50
50
00
F8
88
F8
80
80
F8
ENDCHAR
STARTCHAR igrave
ENCODING 236
SWIDTH 360 0
DWIDTH 7 0
BBX 5 9 1 0
BITMAP
40
20
00
E0
20
20
20
20
38
ENDCHAR
STARTCHAR iacute
ENCODING 237
SWIDTH 360 0
DWIDTH 7 0
BBX 5 9 1 0
BITMAP
10
20
00
E0
20
20
20
20
38
ENDCHAR
STARTCHAR icircumflex
ENCODING 238
SWIDTH 360 0
DWIDTH 7 0
BBX 5 9 1 0
BITMAP
20
50
00
E0
20
20
20
20
38
ENDCHAR
STARTCHAR idieresis
ENCODING 239
SWIDTH 360 0
DWIDTH 7 0
BBX 5 9 1 0
BITMAP
50
50
00
E0
20
20
20
20
38
ENDCHAR
STARTCHAR eth
ENCODING 240
SWIDTH 360 0
DWIDTH 7 0
BBX 5 10 1 0
BITMAP
A0
40
A0
00
F8
88
88
88
88
F8
ENDCHAR
STARTCHAR ntilde
ENCODING 241
SWIDTH 360 0
DWIDTH 7 0
BBX 5 9 1 0
BITMAP
28
50
00
F8
88
88
88
88
88
ENDCHAR
STARTCHAR ograve
ENCODING 242
SWIDTH 360 0
DWIDTH 7 0
BBX 5 9 1 0
BITMAP
40
20
00
F8
88
88
88
88
F8
ENDCHAR
STARTCHAR oacute
ENCODING 243
SWIDTH 360 0
DWIDTH 7 0
BBX 5 9 1 0
BITMAP
10
20
00
F8
88
88
88
88
F8
ENDCHAR
STARTCHAR ocircumflex
ENCODING 244
SWIDTH 360 0
DWIDTH 7 0
BBX 5 9 1 0
BITMAP
20
50
00
F8
88
88
88
88
F8
ENDCHAR
STARTCHAR otilde
ENCODING 245
SWIDTH 360 0
DWIDTH 7 0
BBX 5 9 1 0
BITMAP
28
50
00
F8
88
88
88
88
F8
ENDCHAR
STARTCHAR odieresis
ENCODING 246
SWIDTH 360 0
DWIDTH 7 0
BBX 5 9 1 0
BITMAP
50
50
00
F8
88
88
88
88
F8
ENDCHAR
STARTCHAR divide
ENCODING 247
SWIDTH 360 0
DWIDTH 7 0
BBX 5 7 1 0
BITMAP
20
20
00
F8
00
20
20
ENDCHAR
STARTCHAR oslash
ENCODING 248
SWIDTH 360 0
DWIDTH 7 0
BBX 7 6 0 0
BITMAP
7E
4C
54
64
44
FC
ENDCHAR
STARTCHAR ugrave
ENCODING 249
SWIDTH 360 0
DWIDTH 7 0
BBX 5 9 1 0
BITMAP
40
20
00
88
88
88
88
88
F8
ENDCHAR
STARTCHAR uacute
ENCODING 250
SWIDTH 360 0
DWIDTH 7 0
BBX 5 9 1 0
BITMAP
10
20
00
88
88
88
88
88
F8
ENDCHAR
STARTCHAR ucircumflex
ENCODING 251
SWIDTH 360 0
DWIDTH 7 0
BBX 5 9 1 0
BITMAP
20
50
00
88
88
88
88
88
F8
ENDCHAR
STARTCHAR udieresis
ENCODING 252
SWIDTH 360 0
DWIDTH 7 0
BBX 5 9 1 0
BITMAP
50
50
00
88
88
88
88
88
F8
ENDCHAR
STARTCHAR yacute
ENCODING 253
SWIDTH 360 0
DWIDTH 7 0
BBX 5 11 1 -2
BITMAP
10
20
00
88
88
88
88
88
F8
08
F8
ENDCHAR
STARTCHAR thorn
ENCODING 254
SWIDTH 360 0
DWIDTH 7 0
BBX 5 10 1 -2
BITMAP
80
80
F8
88
88
88
88
F8
80
80
ENDCHAR
STARTCHAR ydieresis
ENCODING 255
SWIDTH 360 0
DWIDTH 7 0
BBX 5 11 1 -2
BITMAP
50
50
00
88
88
88
88
88
F8
08
F8
ENDCHAR
STARTCHAR OE
ENCODING 338
SWIDTH 360 0
DWIDTH 7 0
BBX 5 8 1 0
BITMAP
F8
A0
A0
B8
A0
A0
A0
F8
ENDCHAR
STARTCHAR oe
ENCODING 339
SWIDTH 360 0
DWIDTH 7 0
BBX 5 6 1 0
BITMAP
F8
A8
B8
A0
A0
F8
ENDCHAR
STARTCHAR Scaron
ENCODING 352
SWIDTH 360 0
DWIDTH 7 0
BBX 5 11 1 0
BITMAP
50
20
00
F8
80
80
F8
08
08
08
F8
ENDCHAR
STARTCHAR scaron
ENCODING 353
SWIDTH 360 0
DWIDTH 7 0
BBX 5 9 1 0
BITMAP
50
20
00
F8
80
F8
08
08
F8
ENDCHAR
STARTCHAR Ydieresis
ENCODING 376
SWIDTH 360 0
DWIDTH 7 0
BBX 5 11 1 0
BITMAP
50
50
00
88
88
88
F8
20
20
20
20
ENDCHAR
STARTCHAR Zcaron
ENCODING 381
SWIDTH 360 0
DWIDTH 7 0
BBX 5 11 1 0
BITMAP
50
20
00
F8
08
10
20
40
80
80
F8
ENDCHAR
STARTCHAR zcaron
ENCODING 382
SWIDTH 360 0
DWIDTH 7 0
BBX 5 9 1 0
BITMAP
50
20
00
F8
10
20
40
80
F8
ENDCHAR
STARTCHAR florin
ENCODING 402
SWIDTH 360 0
DWIDTH 7 0
BBX 5 8 1 0
BITMAP
38
20
20
F8
20
20
20
E0
ENDCHAR
STARTCHAR circumflex
ENCODING 710
SWIDTH 360 0
DWIDTH 7 0
BBX 3 2 2 9
BITMAP
40
A0
ENDCHAR
STARTCHAR caron
ENCODING 711
SWIDTH 360 0
DWIDTH 7 0
BBX 3 2 2 9
BITMAP
A0
40
ENDCHAR
STARTCHAR breve
ENCODING 728
SWIDTH 360 0
DWIDTH 7 0
BBX 3 2 2 9
BITMAP
A0
40
ENDCHAR
STARTCHAR dotaccent
ENCODING 729
SWIDTH 360 0
DWIDTH 7 0
BBX 1 2 3 9
BITMAP
80
80
ENDCHAR
STARTCHAR tilde
ENCODING 732
SWIDTH 360 0
DWIDTH 7 0
BBX 4 2 2 9
BITMAP
50
A0
ENDCHAR
STARTCHAR hungarumlaut
ENCODING 733
SWIDTH 360 0
DWIDTH 7 0
BBX 4 2 2 9
BITMAP
50
A0
ENDCHAR
STARTCHAR pi
ENCODING 960
SWIDTH 360 0
DWIDTH 7 0
BBX 5 6 1 1
BITMAP
F8
88
88
88
88
88
ENDCHAR
STARTCHAR endash
ENCODING 8211
SWIDTH 360 0
DWIDTH 7 0
BBX 5 1 1 3
BITMAP
F8
ENDCHAR
STARTCHAR emdash
ENCODING 8212
SWIDTH 360 0
DWIDTH 7 0
BBX 5 1 1 3
BITMAP
F8
ENDCHAR
STARTCHAR quoteleft
ENCODING 8216
SWIDTH 360 0
DWIDTH 7 0
BBX 2 4 2 5
BITMAP
40
80
C0
C0
ENDCHAR
STARTCHAR quoteright
ENCODING 8217
SWIDTH 360 0
DWIDTH 7 0
BBX 2 4 2 5
BITMAP
C0
C0
40
80
ENDCHAR
STARTCHAR quotesinglbase
ENCODING 8218
SWIDTH 360 0
DWIDTH 7 0
BBX 2 4 2 -2
BITMAP
C0
C0
40
80
ENDCHAR
STARTCHAR quotedblleft
ENCODING 8220
SWIDTH 360 0
DWIDTH 7 0
BBX 5 4 1 5
BITMAP
48
90
D8
D8
ENDCHAR
STARTCHAR quotedblright
ENCODING 8221
SWIDTH 360 0
DWIDTH 7 0
BBX 5 4 1 5
BITMAP
D8
D8
48
90
ENDCHAR
STARTCHAR quotedblbase
ENCODING 8222
SWIDTH 360 0
DWIDTH 7 0
BBX 5 4 1 -2
BITMAP
D8
D8
48
90
ENDCHAR
STARTCHAR dagger
ENCODING 8224
SWIDTH 360 0
DWIDTH 7 0
BBX 3 8 2 0
BITMAP
40
E0
40
40
40
40
40
40
ENDCHAR
STARTCHAR daggerdbl
ENCODING 8225
SWIDTH 360 0
DWIDTH 7 0
BBX 3 8 2 0
BITMAP
40
E0
40
40
40
40
E0
40
ENDCHAR
STARTCHAR bullet
ENCODING 8226
SWIDTH 360 0
DWIDTH 7 0
BBX 4 4 1 2
BITMAP
60
F0
F0
60
ENDCHAR
STARTCHAR ellipsis
ENCODING 8230
SWIDTH 360 0
DWIDTH 7 0
BBX 5 2 1 0
BITMAP
A8
A8
ENDCHAR
STARTCHAR perthousand
ENCODING 8240
SWIDTH 360 0
DWIDTH 7 0
BBX 7 9 0 0
BITMAP
E0
A4
E8
10
20
40
BE
2A
3E
ENDCHAR
STARTCHAR guilsinglleft
ENCODING 8249
SWIDTH 360 0
DWIDTH 7 0
BBX 4 7 2 0
BITMAP
10
20
40
80
40
20
10
ENDCHAR
STARTCHAR guilsinglright
ENCODING 8250
SWIDTH 360 0
DWIDTH 7 0
BBX 4 7 1 0
BITMAP
80
40
20
10
20
40
80
ENDCHAR
STARTCHAR Euro
ENCODING 8364
SWIDTH 360 0
DWIDTH 7 0
BBX 5 7 1 0
BITMAP
78
40
F0
40
F0
40
78
ENDCHAR
STARTCHAR trademark
ENCODING 8482
SWIDTH 360 0
DWIDTH 7 0
BBX 6 4 0 2
BITMAP
F4
5C
54
54
ENDCHAR
STARTCHAR arrowleft
ENCODING 8592
SWIDTH 360 0
DWIDTH 7 0
BBX 6 6 0 1
BITMAP
0C
3C
FC
FC
3C
0C
ENDCHAR
STARTCHAR arrowup
ENCODING 8593
SWIDTH 360 0
DWIDTH 7 0
BBX 5 8 1 0
BITMAP
20
70
F8
20
20
20
20
20
ENDCHAR
STARTCHAR arrowright
ENCODING 8594
SWIDTH 360 0
DWIDTH 7 0
BBX 6 6 0 1
BITMAP
C0
F0
FC
FC
F0
C0
ENDCHAR
STARTCHAR arrowdown
ENCODING 8595
SWIDTH 360 0
DWIDTH 7 0
BBX 5 8 1 0
BITMAP
20
20
20
20
20
F8
70
20
ENDCHAR
STARTCHAR notequal
ENCODING 8800
SWIDTH 360 0
DWIDTH 7 0
BBX 5 5 1 1
BITMAP
10
F8
20
F8
40
ENDCHAR
STARTCHAR lessequal
ENCODING 8804
SWIDTH 360 0
DWIDTH 7 0
BBX 6 9 0 0
BITMAP
08
10
20
40
20
10
08
00
FC
ENDCHAR
STARTCHAR greaterequal
ENCODING 8805
SWIDTH 360 0
DWIDTH 7 0
BBX 6 9 0 0
BITMAP
40
20
10
08
10
20
40
00
FC
ENDCHAR
STARTCHAR house
ENCODING 8962
SWIDTH 360 0
DWIDTH 7 0
BBX 5 8 1 0
BITMAP
20
50
88
88
88
88
88
F8
ENDCHAR
STARTCHAR uni23BA
ENCODING 9146
SWIDTH 360 0
DWIDTH 7 0
BBX 7 1 0 10
BITMAP
FE
ENDCHAR
STARTCHAR uni23BB
ENCODING 9147
SWIDTH 360 0
DWIDTH 7 0
BBX 7 1 0 7
BITMAP
FE
ENDCHAR
STARTCHAR uni23BC
ENCODING 9148
SWIDTH 360 0
DWIDTH 7 0
BBX 7 1 0 0
BITMAP
FE
ENDCHAR
STARTCHAR uni23BD
ENCODING 9149
SWIDTH 360 0
DWIDTH 7 0
BBX 7 1 0 -3
BITMAP
FE
ENDCHAR
STARTCHAR SF100000
ENCODING 9472
SWIDTH 360 0
DWIDTH 7 0
BBX 7 1 0 3
BITMAP
FE
ENDCHAR
STARTCHAR SF110000
ENCODING 9474
SWIDTH 360 0
DWIDTH 7 0
BBX 1 14 3 -3
BITMAP
80
80
80
80
80
80
80
80
80
80
80
80
80
80
ENDCHAR
STARTCHAR SF010000
ENCODING 9484
SWIDTH 360 0
DWIDTH 7 0
BBX 4 7 3 -3
BITMAP
F0
80
80
80
80
80
80
ENDCHAR
STARTCHAR SF030000
ENCODING 9488
SWIDTH 360 0
DWIDTH 7 0
BBX 4 7 0 -3
BITMAP
F0
10
10
10
10
10
10
ENDCHAR
STARTCHAR SF020000
ENCODING 9492
SWIDTH 360 0
DWIDTH 7 0
BBX 4 8 3 3
BITMAP
80
80
80
80
80
80
80
F0
ENDCHAR
STARTCHAR SF040000
ENCODING 9496
SWIDTH 360 0
DWIDTH 7 0
BBX 4 8 0 3
BITMAP
10
10
10
10
10
10
10
F0
ENDCHAR
STARTCHAR SF080000
ENCODING 9500
SWIDTH 360 0
DWIDTH 7 0
BBX 4 14 3 -3
BITMAP
80
80
80
80
80
80
80
F0
80
80
80
80
80
80
ENDCHAR
STARTCHAR SF090000
ENCODING 9508
SWIDTH 360 0
DWIDTH 7 0
BBX 4 14 0 -3
BITMAP
10
10
10
10
10
10
10
F0
10
10
10
10
10
10
ENDCHAR
STARTCHAR SF060000
ENCODING 9516
SWIDTH 360 0
DWIDTH 7 0
BBX 7 7 0 -3
BITMAP
FE
10
10
10
10
10
10
ENDCHAR
STARTCHAR SF070000
ENCODING 9524
SWIDTH 360 0
DWIDTH 7 0
BBX 7 8 0 3
BITMAP
10
10
10
10
10
10
10
FE
ENDCHAR
STARTCHAR SF050000
ENCODING 9532
SWIDTH 360 0
DWIDTH 7 0
BBX 7 14 0 -3
BITMAP
10
10
10
10
10
10
10
FE
10
10
10
10
10
10
ENDCHAR
STARTCHAR SF540000
ENCODING 9578
SWIDTH 360 0
DWIDTH 7 0
BBX 7 14 0 -3
BITMAP
10
10
10
10
10
10
FE
10
FE
10
10
10
10
10
ENDCHAR
STARTCHAR SF440000
ENCODING 9580
SWIDTH 360 0
DWIDTH 7 0
BBX 7 14 0 -3
BITMAP
28
28
28
28
28
28
EE
00
EE
28
28
28
28
28
ENDCHAR
STARTCHAR block
ENCODING 9608
SWIDTH 360 0
DWIDTH 7 0
BBX 7 14 0 -3
BITMAP
FE
FE
FE
FE
FE
FE
FE
FE
FE
FE
FE
FE
FE
FE
ENDCHAR
STARTCHAR shadelight
ENCODING 9617
SWIDTH 360 0
DWIDTH 7 0
BBX 7 14 0 -3
BITMAP
28
92
28
92
28
92
28
92
28
92
28
92
28
92
ENDCHAR
STARTCHAR shademedium
ENCODING 9618
SWIDTH 360 0
DWIDTH 7 0
BBX 7 14 0 -3
BITMAP
54
AA
54
AA
54
AA
54
AA
54
AA
54
AA
54
AA
ENDCHAR
STARTCHAR filledbox
ENCODING 9632
SWIDTH 360 0
DWIDTH 7 0
BBX 5 5 1 1
BITMAP
F8
F8
F8
F8
F8
ENDCHAR
STARTCHAR blackdiamond
ENCODING 9670
SWIDTH 360 0
DWIDTH 7 0
BBX 5 5 1 1
BITMAP
20
70
F8
70
20
ENDCHAR
STARTCHAR uni25E2
ENCODING 9698
SWIDTH 1000 0
DWIDTH 14 0
BBX 16 16 -8 -3
BITMAP
0001
0003
0007
000F
001F
003F
007F
00FF
01FF
03FF
07FF
0FFF
1FFF
3FFF
7FFF
FFFF
ENDCHAR
STARTCHAR uni25E3
ENCODING 9699
SWIDTH 1000 0
DWIDTH 14 0
BBX 15 15 0 -3
BITMAP
8000
C000
E000
F000
F800
FC00
FE00
FF00
FF80
FFC0
FFE0
FFF0
FFF8
FFFC
FFFE
ENDCHAR
STARTCHAR uni2B61
ENCODING 11105
SWIDTH 1000 0
DWIDTH 14 0
BBX 7 12 2 -1
BITMAP
80
80
80
80
80
F0
00
12
1A
1E
16
12
ENDCHAR
STARTCHAR uni2B80
ENCODING 11136
SWIDTH 1000 0
DWIDTH 14 0
BBX 8 15 0 -3
BITMAP
80
C0
E0
F0
F8
FC
FE
FF
FE
FC
F8
F0
E0
C0
80
ENDCHAR
STARTCHAR uni2B82
ENCODING 11138
SWIDTH 1000 0
DWIDTH 14 0
BBX 8 15 6 -3
BITMAP
01
03
07
0F
1F
3F
7F
FF
7F
3F
1F
0F
07
03
01
ENDCHAR
STARTCHAR uniE0A0
ENCODING 57504
SWIDTH 1000 0
DWIDTH 14 0
BBX 4 13 4 -1
BITMAP
80
80
90
90
90
90
90
30
60
C0
80
80
80
ENDCHAR
STARTCHAR uniE0A1
ENCODING 57505
SWIDTH 1000 0
DWIDTH 14 0
BBX 9 12 3 -1
BITMAP
8000
8000
8000
8000
8000
F000
0000
0880
0C80
0A80
0980
0880
ENDCHAR
STARTCHAR uniE0A2
ENCODING 57506
SWIDTH 1000 0
DWIDTH 14 0
BBX 7 11 3 -1
BITMAP
7C
44
44
44
FE
FE
C6
EE
EE
FE
FE
ENDCHAR
STARTCHAR uniE0B0
ENCODING 57520
SWIDTH 1000 0
DWIDTH 14 0
BBX 8 15 0 -3
BITMAP
80
C0
E0
F0
F8
FC
FE
FF
FE
FC
F8
F0
E0
C0
80
ENDCHAR
STARTCHAR uniE0B1
ENCODING 57521
SWIDTH 1000 0
DWIDTH 14 0
BBX 8 15 0 -3
BITMAP
80
40
20
10
08
04
02
01
02
04
08
10
20
40
80
ENDCHAR
STARTCHAR uniE0B2
ENCODING 57522
SWIDTH 1000 0
DWIDTH 14 0
BBX 8 15 -1 -3
BITMAP
01
03
07
0F
1F
3F
7F
FF
7F
3F
1F
0F
07
03
01
ENDCHAR
STARTCHAR uniE0B3
ENCODING 57523
SWIDTH 1000 0
DWIDTH 14 0
BBX 8 15 -1 -3
BITMAP
01
02
04
08
10
20
40
80
40
20
10
08
04
02
01
ENDCHAR
STARTCHAR uniE4C1
ENCODING 58561
SWIDTH 1000 0
DWIDTH 14 0
BBX 8 8 2 2
BITMAP
81
42
24
18
18
24
42
81
ENDCHAR
STARTCHAR uniE4C2
ENCODING 58562
SWIDTH 1000 0
DWIDTH 14 0
BBX 12 9 1 1
BITMAP
0010
0020
0040
0080
0100
8200
4400
2800
1000
ENDCHAR
STARTCHAR uniE4C3
ENCODING 58563
SWIDTH 1000 0
DWIDTH 14 0
BBX 10 10 2 1
BITMAP
FFC0
C0C0
A140
9240
8C40
8C40
9240
A140
C0C0
FFC0
ENDCHAR
STARTCHAR uniE4C4
ENCODING 58564
SWIDTH 1000 0
DWIDTH 14 0
BBX 11 10 1 1
BITMAP
FFE0
8020
8020
8060
80A0
C120
A220
9420
8820
FFE0
ENDCHAR
STARTCHAR uniE600
ENCODING 58880
SWIDTH 1000 0
DWIDTH 14 0
BBX 11 10 1 0
BITMAP
0FE0
0800
1800
1000
3F80
2000
6000
4000
C000
8000
ENDCHAR
STARTCHAR uniE601
ENCODING 58881
SWIDTH 1000 0
DWIDTH 14 0
BBX 10 9 3 0
BITMAP
F800
0000
7B80
0000
3BC0
0000
7E00
0000
F800
ENDCHAR
STARTCHAR uniE602
ENCODING 58882
SWIDTH 1000 0
DWIDTH 14 0
BBX 7 13 1 -1
BITMAP
80
C0
E0
F0
F8
FC
FE
FC
F8
F0
E0
C0
80
ENDCHAR
STARTCHAR uniE603
ENCODING 58883
SWIDTH 1000 0
DWIDTH 14 0
BBX 17 11 -1 0
BITMAP
FE0000
820000
BA0000
BE0000
BFFE00
822200
DAEE00
DE2200
DBBA00
822200
FFFE00
ENDCHAR
STARTCHAR uniE605
ENCODING 58885
SWIDTH 1000 0
DWIDTH 14 0
BBX 12 11 -1 -1
BITMAP
0FC0
1060
2D30
5950
BA50
A6D0
8DD0
B3D0
CFD0
6010
3FF0
ENDCHAR
STARTCHAR uniE606
ENCODING 58886
SWIDTH 1000 0
DWIDTH 14 0
BBX 12 11 0 -2
BITMAP
1F80
0080
F8F0
8890
8090
9F90
9010
9110
F1F0
1000
1F80
ENDCHAR
STARTCHAR uniE608
ENCODING 58888
SWIDTH 1000 0
DWIDTH 14 0
BBX 13 11 0 -1
BITMAP
FFF8
83F8
BBF8
BBF8
83F8
BF08
AD68
AD08
A178
AD78
FFF8
ENDCHAR
STARTCHAR uniE609
ENCODING 58889
SWIDTH 1000 0
DWIDTH 14 0
BBX 12 11 0 0
BITMAP
FFF0
8010
8010
8010
9990
9990
9990
9990
9990
9990
FFF0
ENDCHAR
STARTCHAR uniE60A
ENCODING 58890
SWIDTH 1000 0
DWIDTH 14 0
BBX 11 10 2 1
BITMAP
7800
B400
8700
8480
7E80
4C80
4F40
48A0
4860
3000
ENDCHAR
STARTCHAR uniE60B
ENCODING 58891
SWIDTH 1000 0
DWIDTH 14 0
BBX 13 11 0 0
BITMAP
3DE0
4510
5DD0
5050
D058
9048
D058
5050
5DD0
4510
3DE0
ENDCHAR
STARTCHAR uniE60C
ENCODING 58892
SWIDTH 1000 0
DWIDTH 14 0
BBX 12 13 0 -1
BITMAP
0600
1F80
7FE0
C830
EBB0
EBF0
E830
EFB0
EBB0
E830
5FE0
1F80
0600
ENDCHAR
STARTCHAR uniE60D
ENCODING 58893
SWIDTH 1000 0
DWIDTH 14 0
BBX 12 10 1 0
BITMAP
FFE0
FFF0
C010
D790
C710
DE50
DCD0
D9D0
C010
7FF0
ENDCHAR
STARTCHAR uniE60E
ENCODING 58894
SWIDTH 1000 0
DWIDTH 14 0
BBX 13 11 0 0
BITMAP
FF00
BD00
BD00
BDF8
BD08
8178
BD08
BDE8
BD68
BD08
FFF8
ENDCHAR
STARTCHAR uniE60F
ENCODING 58895
SWIDTH 1000 0
DWIDTH 14 0
BBX 15 4 -1 3
BITMAP
CEE6
CEE6
FC7E
FC7E
ENDCHAR
STARTCHAR uniE610
ENCODING 58896
SWIDTH 1000 0
DWIDTH 14 0
BBX 10 13 1 -1
BITMAP
3C00
0400
0400
FFC0
7F80
6180
6F80
2900
2D00
2100
3F00
1E00
1E00
ENDCHAR
STARTCHAR uniE611
ENCODING 58897
SWIDTH 1000 0
DWIDTH 14 0
BBX 11 11 1 0
BITMAP
FFE0
8020
BFA0
BFA0
BFE0
BC20
BFA0
BFA0
BFA0
8020
FFE0
ENDCHAR
STARTCHAR uniE612
ENCODING 58898
SWIDTH 1000 0
DWIDTH 14 0
BBX 10 9 1 0
BITMAP
FFC0
0000
FC00
0000
FF80
0000
FF00
0000
FFC0
ENDCHAR
STARTCHAR uniE613
ENCODING 58899
SWIDTH 1000 0
DWIDTH 14 0
BBX 12 10 1 0
BITMAP
FC00
8400
FFF0
8010
9F90
8010
8010
8010
8010
FFF0
ENDCHAR
STARTCHAR uniE614
ENCODING 58900
SWIDTH 1000 0
DWIDTH 14 0
BBX 13 11 0 0
BITMAP
FFC0
8040
BF40
BF40
BFF8
B888
BBB8
B888
BEE8
8888
FFF8
ENDCHAR
STARTCHAR uniE615
ENCODING 58901
SWIDTH 1000 0
DWIDTH 14 0
BBX 12 11 0 0
BITMAP
FFF0
C030
FFF0
C1F0
FFF0
C030
FFF0
C0F0
FFF0
C070
FFF0
ENDCHAR
STARTCHAR uniE618
ENCODING 58904
SWIDTH 1000 0
DWIDTH 14 0
BBX 11 9 1 1
BITMAP
0A00
1100
2080
4040
8020
4040
2080
1100
0A00
ENDCHAR
STARTCHAR uniE619
ENCODING 58905
SWIDTH 1000 0
DWIDTH 14 0
BBX 15 11 0 0
BITMAP
FE00
8200
BA00
BA00
BBFE
8222
B6EE
BA22
BBBA
BA22
FFFE
ENDCHAR
STARTCHAR uniE61B
ENCODING 58907
SWIDTH 1000 0
DWIDTH 14 0
BBX 13 11 0 0
BITMAP
FF80
8080
BE80
BFC0
BC78
BE88
BEB8
BE88
BAE8
8888
FFF8
ENDCHAR
STARTCHAR uniE61D
ENCODING 58909
SWIDTH 1000 0
DWIDTH 14 0
BBX 13 11 0 0
BITMAP
FFC0
8040
BF40
BF40
BFC0
BFC0
BF70
BDD8
B888
8DD8
FF70
ENDCHAR
STARTCHAR uniE61E
ENCODING 58910
SWIDTH 1000 0
DWIDTH 14 0
BBX 10 11 1 0
BITMAP
FFC0
8040
BF40
BF40
BFC0
BFC0
BFC0
BF40
BF40
8040
FFC0
ENDCHAR
STARTCHAR uniE61F
ENCODING 58911
SWIDTH 1000 0
DWIDTH 14 0
BBX 13 12 0 -1
BITMAP
FE00
FE00
D7F8
EBF8
EB18
35F8
7598
6AF8
EAF8
D760
FFE0
FDE0
ENDCHAR
STARTCHAR uniE620
ENCODING 58912
SWIDTH 1000 0
DWIDTH 14 0
BBX 13 13 0 -1
BITMAP
03F8
0208
FEE8
80E8
BF68
BC88
BCB8
BFA0
BFA0
BFA0
BFA0
8020
FFE0
ENDCHAR
STARTCHAR uniE624
ENCODING 58916
SWIDTH 1000 0
DWIDTH 14 0
BBX 12 11 1 0
BITMAP
FF00
8100
BD00
BD00
BF00
B3F0
BA10
BAD0
BAD0
8210
FFF0
ENDCHAR
STARTCHAR uniE638
ENCODING 58936
SWIDTH 1000 0
DWIDTH 14 0
BBX 13 11 -1 -1
BITMAP
3E00
2200
3A00
0BF8
0A08
0BE8
0A08
EAE8
BAE8
8208
FFF8
ENDCHAR
STARTCHAR uniE643
ENCODING 58947
SWIDTH 1000 0
DWIDTH 14 0
BBX 11 11 2 0
BITMAP
3F80
7FC0
FFE0
71C0
AEA0
CE60
EEE0
F1E0
FDE0
7BC0
3780
ENDCHAR
STARTCHAR uniE644
ENCODING 58948
SWIDTH 1000 0
DWIDTH 14 0
BBX 10 11 2 0
BITMAP
3F00
6180
C0C0
9E40
AF40
C040
DFC0
DF40
CE40
6080
3F00
ENDCHAR
STARTCHAR uniE645
ENCODING 58949
SWIDTH 1000 0
DWIDTH 14 0
BBX 11 11 2 0
BITMAP
1F00
A080
E040
7820
F020
E020
F820
E460
F0E0
7FC0
3F80
ENDCHAR
STARTCHAR uniE650
ENCODING 58960
SWIDTH 1000 0
DWIDTH 14 0
BBX 13 11 0 0
BITMAP
FFF8
C7F8
F7F8
F7F8
F408
F5E8
F5E8
F5E8
B5C8
8408
FFF0
ENDCHAR
STARTCHAR uniE6B4
ENCODING 59060
SWIDTH 1000 0
DWIDTH 14 0
BBX 12 11 1 0
BITMAP
FFF0
8010
BF10
A150
A110
BF50
A150
A150
A150
8010
FFF0
ENDCHAR
STARTCHAR uniE6B5
ENCODING 59061
SWIDTH 1000 0
DWIDTH 14 0
BBX 13 11 0 0
BITMAP
1F00
1100
1BF0
0A10
0AD0
0AD8
EA08
AAE8
BAE8
8208
FFF8
ENDCHAR
STARTCHAR uniE6B8
ENCODING 59064
SWIDTH 1000 0
DWIDTH 14 0
BBX 12 11 1 0
BITMAP
FFF0
8010
BC10
A410
A5D0
BD10
A1D0
A050
A1D0
8010
FFF0
ENDCHAR
STARTCHAR uniE6C5
ENCODING 59077
SWIDTH 1000 0
DWIDTH 14 0
BBX 15 10 0 0
BITMAP
F3E0
F3E0
61C0
6380
6700
6E00
7DBE
792A
7254
6654
ENDCHAR
STARTCHAR uniE706
ENCODING 59142
SWIDTH 1000 0
DWIDTH 14 0
BBX 10 10 1 0
BITMAP
FFC0
FFC0
0000
0000
FFC0
FFC0
0000
0000
FFC0
FFC0
ENDCHAR
STARTCHAR uniE718
ENCODING 59160
SWIDTH 1000 0
DWIDTH 14 0
BBX 12 13 0 -2
BITMAP
0600
1F80
7060
F770
FF70
8770
B7F0
8410
BD50
BD50
7FE0
1F80
0600
ENDCHAR
STARTCHAR uniE724
ENCODING 59172
SWIDTH 1000 0
DWIDTH 14 0
BBX 13 11 0 0
BITMAP
FF80
8080
BF80
BF80
B8F8
BE08
BEE8
BEE8
BEE8
8208
FFF8
ENDCHAR
STARTCHAR uniE728
ENCODING 59176
SWIDTH 1000 0
DWIDTH 14 0
BBX 10 11 2 -1
BITMAP
E000
A780
E080
4080
4080
4080
4080
4080
41C0
7940
01C0
ENDCHAR
STARTCHAR uniE729
ENCODING 59177
SWIDTH 1000 0
DWIDTH 14 0
BBX 13 7 0 2
BITMAP
1FC0
1040
1040
F078
1040
1040
1FC0
ENDCHAR
STARTCHAR uniE738
ENCODING 59192
SWIDTH 1000 0
DWIDTH 14 0
BBX 13 13 0 -1
BITMAP
0400
0A00
1400
2A00
1500
FFE0
0018
7FC8
0030
3F80
0000
5F40
3F80
ENDCHAR
STARTCHAR uniE750
ENCODING 59216
SWIDTH 1000 0
DWIDTH 14 0
BBX 12 14 0 -2
BITMAP
0600
1FC0
7F60
FB30
DB90
D9F0
DCF0
CE30
E7F0
F3F0
F870
7FE0
1F80
0600
ENDCHAR
STARTCHAR uniE752
ENCODING 59218
SWIDTH 1000 0
DWIDTH 14 0
BBX 10 13 1 -2
BITMAP
8040
C0C0
E1C0
B340
9E40
B340
E1C0
B340
9E40
B340
E1C0
C0C0
8040
ENDCHAR
STARTCHAR uniE753
ENCODING 59219
SWIDTH 1000 0
DWIDTH 14 0
BBX 12 14 0 -2
BITMAP
0600
1F80
7FE0
F9F0
F6F0
EF70
EF70
E070
EF70
EF70
7FE0
3FC0
1F80
0600
ENDCHAR
STARTCHAR uniE770
ENCODING 59248
SWIDTH 1000 0
DWIDTH 14 0
BBX 15 12 -1 -1
BITMAP
FE00
8200
BA00
8200
BBF8
BA18
FEE8
82E8
AAE8
AAE8
AA18
FFF8
ENDCHAR
STARTCHAR uniE795
ENCODING 59285
SWIDTH 1000 0
DWIDTH 14 0
BBX 12 11 0 -1
BITMAP
FFF0
FFF0
DFF0
EFF0
F7F0
FBF0
F7F0
EFF0
DC30
FFF0
FFF0
ENDCHAR
STARTCHAR uniE798
ENCODING 59288
SWIDTH 1000 0
DWIDTH 14 0
BBX 12 12 0 -1
BITMAP
0700
1F80
3FC0
6060
6FA0
EFB0
EFB0
EFB0
6FB0
2060
1FC0
0780
ENDCHAR
STARTCHAR uniE7B4
ENCODING 59316
SWIDTH 1000 0
DWIDTH 14 0
BBX 13 12 0 -1
BITMAP
FFF8
8008
BF08
A108
A148
A108
BF48
A148
A148
A148
8008
FFF8
ENDCHAR
STARTCHAR uniE7B8
ENCODING 59320
SWIDTH 1000 0
DWIDTH 14 0
BBX 13 12 0 -1
BITMAP
FFF8
8008
BE08
A208
A208
BEE8
A088
A0E8
A028
A0E8
8008
FFF8
ENDCHAR
STARTCHAR uniE7C5
ENCODING 59333
SWIDTH 1000 0
DWIDTH 14 0
BBX 13 13 0 -1
BITMAP
0200
0700
7FF8
4308
2798
6730
E678
64F0
21E0
23C0
2780
3F00
0200
ENDCHAR
STARTCHAR uniFFFD
ENCODING 65533
SWIDTH 360 0
DWIDTH 7 0
BBX 5 7 1 0
BITMAP
A8
00
88
00
88
00
A8
ENDCHAR
ENDFONT
